Genre:Action | Thriller
Language:English
IMDb:http://www.imdb.com/title/tt0944835/
SOURCE:720p.BluRay.DTS.x264

General
Complete name :Salt.Directors.Cut.2010.720p.BRRip.H264.Feel-Free
Format : MPEG-4
Format profile : Base Media
Codec ID : mp42
File size : 1.58 GiB
Duration : 1h 44mn
Overall bit rate : 2 173 Kbps
Video #1
Codec ID : avc1
Codec ID/Info : Advanced Video Coding
Duration : 1h 44mn
Bit rate mode : Variable
Bit rate : 1 692 Kbps
Width : 1 280 pixels
Height : 534 pixels
Display aspect ratio : 2.35:1
Frame rate mode : Constant
Frame rate : 23.976 fps
Resolution : 24 bits
Colorimetry : 4:2:0
Scan type : Progressive
Bits/(Pixel*Frame) : 0.103
Stream size : 1.23 GiB (78%)
Audio #2
ID : 2
Format : AAC
Format/Info : Advanced Audio Codec
Format version : Version 4
Format profile : LC
Format settings, SBR : No
Codec ID : 40
Duration : 1h 44mn
Bit rate mode : Constant
Bit rate : 477 Kbps
Nominal bit rate : 480 Kbps
Channel(s) : 6 channels
Channel positions : Front: L C R, Rear: L R, LFE
Sampling rate : 48.0 KHz
Resolution : 16 bits
Stream size : 355 MiB (22%)

Plot:
As a CIA officer, Evelyn Salt swore an oath to duty, honor and country. Her loyalty will be tested when a defector accuses her of being a Russian spy

TRAILER:
[embed=youtube]http://www.youtube.com/watch?v=QZ40WlshNwU&feature=player_embedded[/embed]

screens
 
http://www.rapidhdd.com/images/825191vlcsnap-2010-11-13-07h14m25s22.png 
http://www.rapidhdd.com/images/317178vlcsnap-2010-11-13-07h14m39s149.png 
http://www.rapidhdd.com/images/383456vlcsnap-2010-11-13-07h14m49s8.png 
http://www.rapidhdd.com/images/383456vlcsnap-2010-11-13-07h14m49s8.png 
http://www.rapidhdd.com/images/515018vlcsnap-2010-11-13-07h15m55s156.png 
http://www.rapidhdd.com/images/816843vlcsnap-2010-11-13-07h16m35s55.png 
http://www.rapidhdd.com/images/739029vlcsnap-2010-11-13-07h25m12s86.png